<svg width="40" height="40" viewBox="0 0 40 40" fill="none" xmlns="http://www.w3.org/2000/svg">
<path d="M27.8913 15.1309C28.0659 14.968 28.2068 14.7724 28.3059 14.5551C28.4049 14.3378 28.4602 14.1032 28.4685 13.8645C28.4769 13.6259 28.4382 13.3879 28.3546 13.1642C28.271 12.9405 28.1441 12.7355 27.9813 12.5609C27.8184 12.3862 27.6228 12.2453 27.4055 12.1463C27.1882 12.0472 26.9536 11.992 26.7149 11.9836C26.4763 11.9752 26.2383 12.014 26.0146 12.0976C25.791 12.1812 25.5859 12.308 25.4113 12.4709L20.0913 17.4309L15.1313 12.109C14.7994 11.7691 14.3477 11.5726 13.8727 11.5615C13.3978 11.5505 12.9374 11.7257 12.59 12.0498C12.2427 12.3739 12.0359 12.821 12.0141 13.2956C11.9922 13.7702 12.157 14.2344 12.4731 14.589L17.4331 19.9091L12.1113 24.8691C11.9305 25.0302 11.7837 25.2259 11.6795 25.4446C11.5754 25.6634 11.516 25.9007 11.5049 26.1427C11.4937 26.3846 11.531 26.6264 11.6146 26.8538C11.6982 27.0811 11.8264 27.2895 11.9917 27.4666C12.1569 27.6437 12.3559 27.786 12.5769 27.8852C12.7979 27.9843 13.0365 28.0383 13.2787 28.044C13.5209 28.0496 13.7618 28.0068 13.9872 27.9181C14.2126 27.8293 14.418 27.6965 14.5913 27.5272L19.9113 22.5691L24.8713 27.8891C25.0314 28.0732 25.227 28.2233 25.4464 28.3302C25.6658 28.4372 25.9044 28.4989 26.1482 28.5117C26.3919 28.5244 26.6357 28.488 26.865 28.4045C27.0944 28.3211 27.3046 28.1923 27.4831 28.0259C27.6616 27.8594 27.8048 27.6588 27.9041 27.4358C28.0034 27.2129 28.0568 26.9722 28.0612 26.7282C28.0655 26.4842 28.0206 26.2418 27.9293 26.0155C27.8379 25.7891 27.702 25.5835 27.5295 25.4109L22.5713 20.0909L27.8913 15.1309Z" fill="#FF603D"/>
<path fill-rule="evenodd" clip-rule="evenodd" d="M0 20C0 8.95455 8.95455 0 20 0C31.0455 0 40 8.95455 40 20C40 31.0455 31.0455 40 20 40C8.95455 40 0 31.0455 0 20ZM20 36.3636C17.8511 36.3636 15.7232 35.9404 13.7379 35.118C11.7526 34.2957 9.94867 33.0903 8.42916 31.5708C6.90966 30.0513 5.70432 28.2474 4.88197 26.2621C4.05962 24.2768 3.63636 22.1489 3.63636 20C3.63636 17.8511 4.05962 15.7232 4.88197 13.7379C5.70432 11.7526 6.90966 9.94867 8.42916 8.42916C9.94867 6.90966 11.7526 5.70432 13.7379 4.88197C15.7232 4.05962 17.8511 3.63636 20 3.63636C24.3399 3.63636 28.5021 5.36038 31.5708 8.42916C34.6396 11.4979 36.3636 15.6601 36.3636 20C36.3636 24.3399 34.6396 28.5021 31.5708 31.5708C28.5021 34.6396 24.3399 36.3636 20 36.3636Z" fill="#FF603D"/>
</svg>
