<svg width="119" height="119" viewBox="0 0 119 119" fill="none" xmlns="http://www.w3.org/2000/svg">
<path d="M83.9294 26.9275L62.2144 5.21246C60.7153 3.71335 58.2847 3.71335 56.7856 5.21246L35.0706 26.9275C33.5715 28.4266 33.5715 30.8571 35.0706 32.3562L56.7856 54.0713C58.2847 55.5704 60.7153 55.5704 62.2144 54.0713L83.9294 32.3562C85.4285 30.8571 85.4285 28.4266 83.9294 26.9275Z" fill="#65B53D"/>
<path d="M113.788 56.7857L92.0726 35.0707C90.5735 33.5716 88.143 33.5716 86.6439 35.0707L64.9288 56.7857C63.4297 58.2848 63.4297 60.7154 64.9288 62.2145L86.6439 83.9295C88.143 85.4286 90.5735 85.4286 92.0726 83.9295L113.788 62.2145C115.287 60.7154 115.287 58.2848 113.788 56.7857Z" fill="#2B7CFF"/>
<path d="M54.0713 56.7857L32.3563 35.0707C30.8571 33.5716 28.4266 33.5716 26.9275 35.0707L5.21247 56.7857C3.71336 58.2848 3.71336 60.7154 5.21247 62.2145L26.9275 83.9295C28.4266 85.4286 30.8571 85.4286 32.3563 83.9295L54.0713 62.2145C55.5704 60.7154 55.5704 58.2848 54.0713 56.7857Z" fill="#FFC802"/>
<path d="M83.9294 86.6441L62.2144 64.9291C60.7153 63.43 58.2847 63.43 56.7856 64.9291L35.0706 86.6441C33.5715 88.1432 33.5715 90.5738 35.0706 92.0729L56.7856 113.788C58.2847 115.287 60.7153 115.287 62.2144 113.788L83.9294 92.0729C85.4285 90.5738 85.4285 88.1432 83.9294 86.6441Z" fill="#FF603D"/>
</svg>
