<svg width="50" height="50" viewBox="0 0 50 50" fill="none" xmlns="http://www.w3.org/2000/svg">
<path d="M35.2642 11.314L26.1403 2.19006C25.5104 1.56018 24.4891 1.56018 23.8593 2.19006L14.7353 11.314C14.1054 11.9439 14.1054 12.9651 14.7353 13.595L23.8593 22.719C24.4891 23.3488 25.5104 23.3488 26.1403 22.719L35.2642 13.595C35.8941 12.9651 35.8941 11.9439 35.2642 11.314Z" fill="#65B53D"/>
<path d="M47.8096 23.8595L38.6857 14.7356C38.0558 14.1057 37.0345 14.1057 36.4047 14.7356L27.2807 23.8595C26.6508 24.4894 26.6508 25.5107 27.2807 26.1405L36.4047 35.2645C37.0345 35.8944 38.0558 35.8944 38.6857 35.2645L47.8096 26.1405C48.4395 25.5107 48.4395 24.4894 47.8096 23.8595Z" fill="#2B7CFF"/>
<path d="M22.7188 23.8595L13.5948 14.7356C12.965 14.1057 11.9437 14.1057 11.3139 14.7356L2.18989 23.8595C1.56001 24.4894 1.56001 25.5107 2.18989 26.1405L11.3138 35.2645C11.9437 35.8944 12.965 35.8944 13.5948 35.2645L22.7188 26.1405C23.3487 25.5107 23.3487 24.4894 22.7188 23.8595Z" fill="#FFC802"/>
<path d="M35.2642 36.4051L26.1403 27.2811C25.5104 26.6512 24.4891 26.6512 23.8593 27.2811L14.7353 36.4051C14.1054 37.035 14.1054 38.0562 14.7353 38.6861L23.8593 47.81C24.4891 48.4399 25.5104 48.4399 26.1403 47.81L35.2642 38.6861C35.8941 38.0562 35.8941 37.035 35.2642 36.4051Z" fill="#FF603D"/>
</svg>
