<svg width="24" height="17" viewBox="0 0 24 17" fill="none" xmlns="http://www.w3.org/2000/svg">
<path d="M9.6 7.19969H6.1212L6.1224 7.18889C6.27909 6.42165 6.58576 5.69291 7.0248 5.04449C7.67815 4.08187 8.59458 3.32748 9.6648 2.87129C10.0272 2.71769 10.4052 2.60009 10.7904 2.52209C11.5895 2.36008 12.4129 2.36008 13.212 2.52209C14.3604 2.7574 15.4141 3.32539 16.242 4.15529L17.9412 2.46089C17.1754 1.69486 16.2693 1.08334 15.2724 0.65969C14.764 0.444445 14.2354 0.280434 13.6944 0.17009C12.5782 -0.0566967 11.4278 -0.0566967 10.3116 0.17009C9.77022 0.280891 9.24121 0.445302 8.7324 0.66089C7.23303 1.29701 5.94952 2.353 5.0364 3.70169C4.42187 4.61111 3.99212 5.63248 3.7716 6.70769C3.738 6.86969 3.72 7.03529 3.696 7.19969H0L4.8 11.9997L9.6 7.19969ZM14.4 9.59969H17.8788L17.8776 9.60929C17.5641 11.1474 16.6575 12.5002 15.354 13.3749C14.7058 13.8143 13.977 14.121 13.2096 14.2773C12.4109 14.4393 11.5879 14.4393 10.7892 14.2773C10.022 14.1206 9.29322 13.8139 8.6448 13.3749C8.32635 13.1595 8.02902 12.9144 7.7568 12.6429L6.06 14.3397C6.82621 15.1055 7.73271 15.7166 8.73 16.1397C9.2388 16.3557 9.7704 16.5201 10.308 16.6293C11.4238 16.8562 12.5738 16.8562 13.6896 16.6293C15.8407 16.1828 17.7327 14.915 18.9636 13.0953C19.5775 12.1866 20.0069 11.166 20.2272 10.0917C20.2596 9.92969 20.2788 9.76409 20.3028 9.59969H24L19.2 4.79969L14.4 9.59969Z" fill="white"/>
</svg>
