<svg width="13" height="14" viewBox="0 0 13 14" fill="none" xmlns="http://www.w3.org/2000/svg">
<path d="M12.4375 3.75C12.4375 3.90308 12.3813 4.05084 12.2796 4.16523C12.1778 4.27963 12.0377 4.35271 11.8856 4.37063L11.8125 4.375H11.2844L10.515 12.2C10.4731 12.6246 10.2748 13.0184 9.95862 13.3049C9.64245 13.5914 9.23103 13.75 8.80437 13.75H4.19562C3.76897 13.75 3.35755 13.5914 3.04138 13.3049C2.72521 13.0184 2.52689 12.6246 2.485 12.2L1.71562 4.375H1.1875C1.02174 4.375 0.862768 4.30915 0.745558 4.19194C0.628348 4.07473 0.5625 3.91576 0.5625 3.75C0.5625 3.58424 0.628348 3.42527 0.745558 3.30806C0.862768 3.19085 1.02174 3.125 1.1875 3.125H4.3125C4.3125 2.83773 4.36908 2.55328 4.47901 2.28788C4.58895 2.02248 4.75008 1.78133 4.9532 1.5782C5.15633 1.37508 5.39748 1.21395 5.66288 1.10401C5.92828 0.994081 6.21273 0.9375 6.5 0.9375C6.78727 0.9375 7.07172 0.994081 7.33712 1.10401C7.60252 1.21395 7.84367 1.37508 8.0468 1.5782C8.24992 1.78133 8.41105 2.02248 8.52099 2.28788C8.63092 2.55328 8.6875 2.83773 8.6875 3.125H11.8125C11.9783 3.125 12.1372 3.19085 12.2544 3.30806C12.3717 3.42527 12.4375 3.58424 12.4375 3.75ZM7.90625 5.78125C7.79298 5.78125 7.68354 5.82228 7.59817 5.89673C7.5128 5.97118 7.45728 6.07403 7.44187 6.18625L7.4375 6.25V10.625L7.44187 10.6887C7.45731 10.8009 7.51285 10.9038 7.59821 10.9782C7.68358 11.0526 7.793 11.0936 7.90625 11.0936C8.0195 11.0936 8.12892 11.0526 8.21429 10.9782C8.29965 10.9038 8.35519 10.8009 8.37063 10.6887L8.375 10.625V6.25L8.37063 6.18625C8.35522 6.07403 8.2997 5.97118 8.21433 5.89673C8.12896 5.82228 8.01952 5.78125 7.90625 5.78125ZM5.09375 5.78125C4.98048 5.78125 4.87104 5.82228 4.78567 5.89673C4.7003 5.97118 4.64478 6.07403 4.62937 6.18625L4.625 6.25V10.625L4.62937 10.6887C4.64481 10.8009 4.70035 10.9038 4.78571 10.9782C4.87108 11.0526 4.9805 11.0936 5.09375 11.0936C5.207 11.0936 5.31642 11.0526 5.40179 10.9782C5.48715 10.9038 5.54269 10.8009 5.55813 10.6887L5.5625 10.625V6.25L5.55813 6.18625C5.54272 6.07403 5.4872 5.97118 5.40183 5.89673C5.31646 5.82228 5.20702 5.78125 5.09375 5.78125ZM6.5 2.1875C6.25136 2.1875 6.0129 2.28627 5.83709 2.46209C5.66127 2.6379 5.5625 2.87636 5.5625 3.125H7.4375C7.4375 2.87636 7.33873 2.6379 7.16291 2.46209C6.9871 2.28627 6.74864 2.1875 6.5 2.1875Z" fill="#FF603D"/>
</svg>
