<svg width="17" height="19" viewBox="0 0 17 19" fill="none" xmlns="http://www.w3.org/2000/svg">
<path d="M16.8125 4.25C16.8125 4.46432 16.7338 4.67117 16.5914 4.83133C16.449 4.99148 16.2527 5.0938 16.0399 5.11888L15.9375 5.125H15.1981L14.121 16.08C14.0624 16.6744 13.7847 17.2258 13.3421 17.6269C12.8994 18.028 12.3234 18.2501 11.7261 18.25H5.27387C4.67656 18.2501 4.10056 18.028 3.65793 17.6269C3.21529 17.2258 2.93765 16.6744 2.879 16.08L1.80187 5.125H1.0625C0.830436 5.125 0.607876 5.03281 0.443782 4.86872C0.279687 4.70462 0.1875 4.48206 0.1875 4.25C0.1875 4.01794 0.279687 3.79538 0.443782 3.63128C0.607876 3.46719 0.830436 3.375 1.0625 3.375H5.4375C5.4375 2.97283 5.51671 2.57459 5.67062 2.20303C5.82452 1.83147 6.05011 1.49387 6.33449 1.20949C6.61887 0.925106 6.95647 0.699524 7.32803 0.545619C7.69959 0.391714 8.09783 0.3125 8.5 0.3125C8.90217 0.3125 9.30041 0.391714 9.67197 0.545619C10.0435 0.699524 10.3811 0.925106 10.6655 1.20949C10.9499 1.49387 11.1755 1.83147 11.3294 2.20303C11.4833 2.57459 11.5625 2.97283 11.5625 3.375H15.9375C16.1696 3.375 16.3921 3.46719 16.5562 3.63128C16.7203 3.79538 16.8125 4.01794 16.8125 4.25ZM10.4688 7.09375C10.3102 7.09376 10.157 7.15119 10.0374 7.25542C9.91792 7.35965 9.84019 7.50364 9.81862 7.66075L9.8125 7.75V13.875L9.81862 13.9642C9.84024 14.1213 9.91798 14.2653 10.0375 14.3695C10.157 14.4736 10.3102 14.531 10.4688 14.531C10.6273 14.531 10.7805 14.4736 10.9 14.3695C11.0195 14.2653 11.0973 14.1213 11.1189 13.9642L11.125 13.875V7.75L11.1189 7.66075C11.0973 7.50364 11.0196 7.35965 10.9001 7.25542C10.7805 7.15119 10.6273 7.09376 10.4688 7.09375ZM6.53125 7.09375C6.37267 7.09376 6.21945 7.15119 6.09994 7.25542C5.98042 7.35965 5.90269 7.50364 5.88112 7.66075L5.875 7.75V13.875L5.88112 13.9642C5.90274 14.1213 5.98048 14.2653 6.1 14.3695C6.21951 14.4736 6.3727 14.531 6.53125 14.531C6.6898 14.531 6.84299 14.4736 6.9625 14.3695C7.08202 14.2653 7.15976 14.1213 7.18138 13.9642L7.1875 13.875V7.75L7.18138 7.66075C7.15981 7.50364 7.08208 7.35965 6.96256 7.25542C6.84305 7.15119 6.68983 7.09376 6.53125 7.09375ZM8.5 2.0625C8.1519 2.0625 7.81806 2.20078 7.57192 2.44692C7.32578 2.69306 7.1875 3.0269 7.1875 3.375H9.8125C9.8125 3.0269 9.67422 2.69306 9.42808 2.44692C9.18194 2.20078 8.8481 2.0625 8.5 2.0625Z" fill="#FF603D"/>
</svg>
