<svg width="31" height="30" viewBox="0 0 31 30" fill="none" xmlns="http://www.w3.org/2000/svg">
<path d="M15.3094 13.4473C15.332 13.4193 15.361 13.3967 15.394 13.3811C15.4271 13.3655 15.4633 13.3574 15.5001 13.3574C15.5368 13.3574 15.5731 13.3655 15.6062 13.3811C15.6392 13.3967 15.6682 13.4193 15.6908 13.4473L19.0814 17.5987C19.1094 17.6333 19.1267 17.6747 19.1315 17.7184C19.1362 17.762 19.1282 17.806 19.1083 17.8455C19.0884 17.8849 19.0575 17.9181 19.019 17.9413C18.9805 17.9645 18.936 17.9767 18.8907 17.9766H16.6535V25.0782C16.6535 25.2071 16.5445 25.3126 16.4113 25.3126H14.5949C14.4617 25.3126 14.3527 25.2071 14.3527 25.0782V17.9796H12.1095C11.9066 17.9796 11.7946 17.754 11.9187 17.6016L15.3094 13.4473Z" fill="white"/>
<path d="M6.43613 10.7432C7.82265 7.2041 11.3556 4.6875 15.4939 4.6875C19.6323 4.6875 23.1652 7.20117 24.5518 10.7402C27.1462 11.3994 29.0625 13.6875 29.0625 16.4062C29.0625 19.6436 26.353 22.2656 23.0108 22.2656H21.7969C21.6637 22.2656 21.5547 22.1602 21.5547 22.0312V20.2734C21.5547 20.1445 21.6637 20.0391 21.7969 20.0391H23.0108C24.0311 20.0391 24.9907 19.6465 25.7052 18.9346C26.4166 18.2256 26.795 17.2705 26.7617 16.2803C26.7345 15.5068 26.462 14.7803 25.9686 14.168C25.463 13.5439 24.7546 13.0898 23.9675 12.8877L22.8201 12.5977L22.3993 11.5254C22.139 10.8574 21.7757 10.2334 21.3186 9.66797C20.8673 9.10754 20.3327 8.61489 19.7322 8.20605C18.488 7.35938 17.0228 6.91113 15.4939 6.91113C13.9651 6.91113 12.4999 7.35938 11.2557 8.20605C10.6532 8.61621 10.1204 9.1084 9.66934 9.66797C9.21221 10.2334 8.84893 10.8604 8.58858 11.5254L8.1708 12.5947L7.02646 12.8877C5.38564 13.3154 4.23828 14.7598 4.23828 16.4062C4.23828 17.376 4.62881 18.29 5.33721 18.9756C5.68461 19.3138 6.09789 19.5819 6.5531 19.7644C7.00831 19.947 7.49642 20.0403 7.98916 20.0391H9.20312C9.33633 20.0391 9.44531 20.1445 9.44531 20.2734V22.0312C9.44531 22.1602 9.33633 22.2656 9.20312 22.2656H7.98916C4.64697 22.2656 1.9375 19.6436 1.9375 16.4062C1.9375 13.6904 3.84775 11.4053 6.43613 10.7432Z" fill="white"/>
</svg>
